HIERARCHY
ROOT Hips
{
	OFFSET	0.00	0.00	0.00
	CHANNELS 6 Xposition Yposition Zposition Zrotation Xrotation Yrotation
	JOINT LeftUpLeg
	{
		OFFSET	 0.126116	-0.014019	-0.065224
		CHANNELS 3 Zrotation Xrotation Yrotation
		JOINT LeftLeg
		{
			OFFSET	 0.000000	 0.000000	 0.569914
			CHANNELS 3 Zrotation Xrotation Yrotation
			JOINT LeftFoot
			{
				OFFSET	 0.000000	 0.000000	 0.544423
				CHANNELS 3 Zrotation Xrotation Yrotation
				JOINT LeftToeBase
				{
					OFFSET	 0.000000	 0.000000	 0.207117
					CHANNELS 3 Zrotation Xrotation Yrotation
					End Site
					{
						OFFSET	 0.000000	 0.000000	 0.207117
					}
				}
			}
		}
	}
	JOINT RightUpLeg
	{
		OFFSET	-0.124023	-0.008373	-0.065224
		CHANNELS 3 Zrotation Xrotation Yrotation
		JOINT RightLeg
		{
			OFFSET	 0.000000	 0.000000	 0.570047
			CHANNELS 3 Zrotation Xrotation Yrotation
			JOINT RightFoot
			{
				OFFSET	 0.000000	 0.000000	 0.544354
				CHANNELS 3 Zrotation Xrotation Yrotation
				JOINT RightToeBase
				{
					OFFSET	 0.000000	 0.000000	 0.207540
					CHANNELS 3 Zrotation Xrotation Yrotation
					End Site
					{
						OFFSET	 0.000000	 0.000000	 0.207540
					}
				}
			}
		}
	}
	JOINT Spine
	{
		OFFSET	 0.000184	-0.007763	 0.117403
		CHANNELS 3 Zrotation Xrotation Yrotation
		JOINT Spine1
		{
			OFFSET	 0.000000	 0.000000	 0.137269
			CHANNELS 3 Zrotation Xrotation Yrotation
			JOINT Spine2
			{
				OFFSET	 0.000000	 0.000000	 0.156879
				CHANNELS 3 Zrotation Xrotation Yrotation
				JOINT LeftShoulder
				{
					OFFSET	 0.080501	-0.002496	 0.160144
					CHANNELS 3 Zrotation Xrotation Yrotation
					JOINT LeftArm
					{
						OFFSET	 0.000000	 0.000000	 0.164363
						CHANNELS 3 Zrotation Xrotation Yrotation
						JOINT LeftForeArm
						{
							OFFSET	 0.000000	 0.000000	 0.364576
							CHANNELS 3 Zrotation Xrotation Yrotation
							JOINT LeftHand
							{
								OFFSET	 0.000000	 0.000000	 0.360812
								CHANNELS 3 Zrotation Xrotation Yrotation
								JOINT LeftHandIndex1
								{
									OFFSET	 0.000000	 0.000000	 0.086006
									CHANNELS 3 Zrotation Xrotation Yrotation
									JOINT LeftHandIndex2
									{
										OFFSET	 0.000000	 0.000000	 0.047237
										CHANNELS 3 Zrotation Xrotation Yrotation
										JOINT LeftHandIndex3
										{
											OFFSET	-0.004284	-0.000551	 0.038165
											CHANNELS 3 Zrotation Xrotation Yrotation
											End Site
											{
												OFFSET	-0.004284	-0.000551	 0.038165
											}
										}
									}
								}
							}
						}
					}
				}
				JOINT Neck
				{
					OFFSET	 0.000000	 0.000000	 0.176489
					CHANNELS 3 Zrotation Xrotation Yrotation
					JOINT Head
					{
						OFFSET	 0.000000	-0.001747	 0.077940
						CHANNELS 3 Zrotation Xrotation Yrotation
						End Site
						{
							OFFSET	 0.000000	-0.001747	 0.077940
						}
					}
				}
				JOINT RightShoulder
				{
					OFFSET	-0.080363	 0.000306	 0.159706
					CHANNELS 3 Zrotation Xrotation Yrotation
					JOINT RightArm
					{
						OFFSET	 0.000000	 0.000000	 0.164196
						CHANNELS 3 Zrotation Xrotation Yrotation
						JOINT RightForeArm
						{
							OFFSET	 0.000000	 0.000000	 0.365611
							CHANNELS 3 Zrotation Xrotation Yrotation
							JOINT RightHand
							{
								OFFSET	 0.000000	 0.000000	 0.360648
								CHANNELS 3 Zrotation Xrotation Yrotation
								JOINT RightHandIndex1
								{
									OFFSET	 0.000000	 0.000000	 0.069977
									CHANNELS 3 Zrotation Xrotation Yrotation
									JOINT RightHandIndex2
									{
										OFFSET	 0.000000	 0.000000	 0.052305
										CHANNELS 3 Zrotation Xrotation Yrotation
										JOINT RightHandIndex3
										{
											OFFSET	 0.009002	-0.000782	 0.042196
											CHANNELS 3 Zrotation Xrotation Yrotation
											End Site
											{
												OFFSET	 0.009002	-0.000782	 0.042196
											}
										}
									}
								}
							}
						}
					}
				}
			}
		}
	}
}
MOTION
Frames:    11
Frame Time: 0.03333334
-0.458775	-0.032732	 1.275264	 179.270400	 0.997015	 3.230396	-20.610720	-3.634398	 178.660400	 8.438464	-15.120280	 2.066846	-35.028120	 72.662730	 10.980230	-2.385833	 28.452760	 0.000004	 22.204500	-2.135391	 176.312300	-7.367499	-7.036710	-1.097776	 32.068080	 68.649510	-8.893943	 2.384659	 28.388700	-0.000001	-13.227440	 3.590230	-2.573729	-3.452380	-2.627992	-16.783580	 13.268520	 14.700860	 22.047190	-91.776180	 78.527430	-180.000000	-14.654130	-19.197180	-12.735550	 8.777145	-0.094669	-0.498222	-6.680944	-22.114540	-5.375564	-4.130319	 21.525730	 0.991547	-5.167930	 0.731704	 3.519349	-1.378229	 35.397820	-2.634230	-0.000002	-3.783157	-0.089647	-5.560463	-9.746036	-0.474429	 89.782080	 78.203870	-180.000000	 7.328848	-7.015382	-7.773702	-10.608210	-4.867116	 46.795880	 16.260040	-37.580540	 37.809070	 5.716227	 19.173190	-3.685159	 5.027444	 0.246877	-9.377972	-2.350882	 35.473990	 5.254307
-0.461918	-0.032763	 1.275716	 179.256800	-2.560049	 4.833685	 8.580068	-2.200036	 174.898800	-6.708787	-17.190000	-2.159228	 4.000172	 75.314070	-16.010080	-2.385833	 28.452760	 0.000004	 26.537870	 2.076418	 173.335500	 1.894390	-3.630606	 0.023541	 5.824185	 64.739650	 9.223009	 2.384659	 28.388700	-0.000001	-10.310600	 7.552503	-6.270632	-3.591310	 4.970759	-14.470540	 15.256510	 0.270837	 25.740530	-91.776130	 78.527420	 180.000000	-73.054540	 3.381332	-14.837460	 1.786888	-1.282261	-18.743060	-0.636895	-32.056810	-1.911240	-4.130319	 21.525730	 0.991547	-5.167930	 0.731704	 3.519349	-1.378229	 35.397820	-2.634230	-2.513548	 0.228577	 1.372738	-8.916535	-26.742890	-10.299670	 89.782100	 78.203850	 180.000000	-22.293610	-10.584320	-13.613510	-12.793710	-9.349103	 53.958450	 29.860810	 18.908370	 111.879200	 5.716227	 19.173190	-3.685159	 5.027444	 0.246877	-9.377972	-2.350882	 35.473990	 5.254307
-0.462553	-0.032976	 1.275339	 179.414400	-2.698924	 5.592550	 12.041450	-4.062787	 173.753100	-8.721801	-20.553480	-3.284409	 7.741400	 77.040580	-18.265330	-2.385833	 28.452760	 0.000004	 25.988940	-0.371113	 172.976000	 2.911762	-8.627895	 0.208427	 1.734269	 66.287790	 12.614870	 2.384659	 28.388700	-0.000001	-10.110640	 7.722863	-7.527847	-3.930471	 6.361217	-14.288880	 15.682020	-1.896127	 26.566290	-91.776160	 78.527400	 180.000000	-80.279960	 9.040447	-0.326310	 0.170601	-2.258849	-46.303270	-1.124395	-31.207260	-2.246039	-4.130319	 21.525730	 0.991547	-5.167930	 0.731704	 3.519349	-1.378229	 35.397820	-2.634230	-2.950641	 0.904250	 1.875948	-9.988764	-29.172330	-12.495800	 89.782080	 78.203850	-180.000000	-23.728770	-11.343530	-17.047320	-10.857860	-11.160240	 66.521740	 29.849270	 22.224330	 118.459600	 5.716227	 19.173190	-3.685159	 5.027444	 0.246877	-9.377972	-2.350882	 35.473990	 5.254307
-0.462893	-0.033144	 1.274897	 179.487600	-2.711574	 5.954115	 13.504100	-5.232952	 173.244800	-9.712802	-22.688260	-3.999474	 9.676203	 78.186190	-19.551080	-2.385833	 28.452760	 0.000004	 25.672110	-1.778321	 172.933100	 3.380352	-11.497720	 0.370421	-0.093151	 67.295240	 14.149460	 2.384659	 28.388700	-0.000001	-10.093740	 7.746990	-8.145089	-4.181963	 7.056087	-14.179670	 15.909310	-2.904007	 26.947220	-91.776160	 78.527420	 180.000000	-82.952880	 12.114370	 7.224028	-0.624582	-2.356164	-59.964750	-1.527533	-30.764840	-2.385750	-4.130319	 21.525730	 0.991547	-5.167930	 0.731704	 3.519349	-1.378229	 35.397820	-2.634230	-3.153728	 1.212834	 2.118962	-10.527510	-30.258730	-13.555390	 89.782110	 78.203900	 180.000000	-22.955900	-11.548490	-18.505180	-9.237331	-12.004410	 75.021000	 30.040310	 23.667160	 118.720600	 5.716227	 19.173190	-3.685159	 5.027444	 0.246877	-9.377972	-2.350882	 35.473990	 5.254307
-0.463338	-0.033544	 1.273557	 179.698300	-2.413898	 5.986832	 12.550990	-7.001026	 173.448100	-10.021100	-26.550190	-4.773658	 9.302258	 80.691030	-19.196940	-2.385833	 28.452760	 0.000004	 24.980580	-4.554738	 173.701900	 3.539049	-17.259240	 0.598483	 1.268771	 70.465340	 12.519600	 2.384659	 28.388700	-0.000001	-10.689340	 7.351530	-8.328156	-4.676586	 7.679412	-14.134270	 16.065780	-3.248734	 27.165740	-91.776210	 78.527420	-180.000000	-78.442380	 15.548740	 18.851610	-1.672463	-2.787056	-83.574680	-1.462253	-31.120900	-2.406898	-4.130319	 21.525730	 0.991547	-5.167930	 0.731704	 3.519349	-1.378229	 35.397820	-2.634230	-3.157874	 1.198575	 2.261501	-10.569830	-30.164970	-14.004490	 89.782100	 78.203890	 180.000000	-14.927660	-9.254039	-18.519220	-5.752036	-12.178890	 91.423050	 31.950650	 24.621190	 100.296700	 5.716227	 19.173190	-3.685159	 5.027444	 0.246877	-9.377972	-2.350882	 35.473990	 5.254307
-0.463868	-0.034072	 1.271677	 179.895400	-2.025325	 5.969381	 11.366070	-8.937943	 173.781000	-10.328790	-30.910240	-5.644269	 8.496020	 83.611960	-18.516130	-2.385833	 28.452760	 0.000004	 24.460420	-7.186018	 174.754400	 3.659885	-22.717380	 0.825700	 4.342285	 73.580860	 9.123183	 2.384659	 28.388700	-0.000001	-11.440920	 6.832387	-8.484039	-5.331730	 8.404353	-14.035860	 16.238480	-3.550024	 27.340440	-91.776280	 78.527420	-179.999900	-69.420780	 22.278770	 28.407190	-2.813115	-2.829248	-106.299100	-1.339044	-31.600070	-2.409523	-4.130319	 21.525730	 0.991547	-5.167930	 0.731704	 3.519349	-1.378229	 35.397820	-2.634230	-3.133283	 1.140542	 2.374305	-10.535120	-29.916610	-14.318420	 89.782170	 78.203890	 179.999900	-4.828993	-1.527745	-14.265070	-2.453788	-11.355460	 107.713600	 33.744510	 25.127600	 74.588750	 5.716227	 19.173190	-3.685159	 5.027444	 0.246877	-9.377972	-2.350882	 35.473990	 5.254307
-0.464600	-0.034788	 1.269142	-179.799700	-1.564239	 5.860137	 10.424260	-11.058130	 174.245600	-11.114290	-35.779960	-6.889179	 9.291902	 86.760400	-19.250980	-2.385833	 28.452760	 0.000004	 23.972290	-9.793586	 176.224600	 3.935061	-28.320680	 1.144988	 9.002672	 76.665780	 4.012871	 2.384659	 28.388700	-0.000001	-12.465560	 6.272123	-8.514106	-6.133217	 9.133701	-13.961070	 16.321780	-3.752803	 27.456760	-91.776210	 78.527400	-180.000000	-49.073850	 37.536290	 27.408730	-3.707130	-2.416822	-125.469200	-1.340848	-31.916250	-2.422593	-4.130319	 21.525730	 0.991547	-5.167930	 0.731704	 3.519349	-1.378229	 35.397820	-2.634230	-3.092538	 0.898843	 2.144353	-10.446980	-29.578090	-13.951830	 89.782100	 78.203870	 180.000000	 1.765481	 18.261660	-1.907321	-0.537854	-9.559033	 120.172200	 32.776120	 25.903550	 40.747770	 5.716227	 19.173190	-3.685159	 5.027444	 0.246877	-9.377972	-2.350882	 35.473990	 5.254307
-0.465625	-0.035635	 1.266289	-179.501100	-1.055585	 5.743631	 9.596462	-13.050640	 174.761700	-12.079130	-40.442730	-8.277402	 62.288500	 89.829830	-72.188670	-2.385833	 28.452760	 0.000004	 23.725620	-12.098620	 177.896100	 4.250514	-33.290770	 1.498074	 16.770790	 79.269520	-4.260266	 2.384659	 28.388700	-0.000001	-13.548740	 5.642425	-8.575587	-7.026258	 9.943497	-13.811100	 16.419240	-3.990793	 27.550160	-91.776140	 78.527420	 180.000000	-3.213245	 52.819620	-10.799550	-3.812242	-2.349380	-127.873200	-1.354971	-32.260770	-2.437744	-4.130319	 21.525730	 0.991547	-5.167930	 0.731704	 3.519349	-1.378229	 35.397820	-2.634230	-3.052655	 0.648646	 1.893534	-10.360090	-29.241020	-13.541530	 89.782160	 78.203920	 179.999900	-12.977310	 40.975860	 27.217240	-1.083301	-8.822828	 119.546500	 21.085410	 23.428450	 14.051660	 5.716227	 19.173190	-3.685159	 5.027444	 0.246877	-9.377972	-2.350882	 35.473990	 5.254307
-0.466901	-0.036646	 1.263396	-179.004100	-0.671987	 5.531867	 8.268776	-14.543820	 175.444600	-12.899460	-44.438740	-9.513499	-175.087500	 87.002130	 165.125900	-2.385833	 28.452760	 0.000004	 23.270980	-13.811600	 179.642700	 4.624980	-37.415530	 1.886114	 27.054370	 81.096600	-15.039520	 2.384659	 28.388700	-0.000001	-14.855210	 5.045449	-8.415371	-7.795059	 10.544900	-13.450670	 16.218890	-3.654924	 27.145020	-91.776120	 78.527380	 180.000000	 37.601070	 50.961220	-58.876770	-3.009051	-2.787248	-110.160800	-1.389613	-32.661430	-2.453462	-4.130319	 21.525730	 0.991547	-5.167930	 0.731704	 3.519349	-1.378229	 35.397820	-2.634230	-3.001362	-0.016180	 0.894493	-9.991470	-28.237290	-11.240460	 89.782140	 78.203900	 180.000000	-41.582940	 44.776530	 68.309750	-3.552112	-10.036110	 104.066100	 5.329986	 18.829320	 6.506285	 5.716227	 19.173190	-3.685159	 5.027444	 0.246877	-9.377972	-2.350882	 35.473990	 5.254307
-0.468939	-0.037724	 1.261404	-178.461200	-0.478155	 5.299856	 6.959239	-15.304030	 176.116400	-13.450930	-46.812680	-10.312550	-174.477100	 84.976520	 164.464800	-2.385833	 28.452760	 0.000004	 22.710110	-14.732300	-179.011600	 4.980952	-39.946660	 2.222060	 35.405750	 81.961300	-23.757560	 2.384659	 28.388700	-0.000001	-15.892840	 4.682868	-8.074449	-8.190374	 10.765960	-13.177340	 15.912910	-3.118535	 26.664450	-91.776200	 78.527400	-180.000000	 50.671230	 47.187770	-81.640240	-1.987730	-2.961325	-90.029720	-1.428692	-33.123130	-2.471025	-4.130319	 21.525730	 0.991547	-5.167930	 0.731704	 3.519349	-1.378229	 35.397820	-2.634230	-2.962553	-0.707615	-0.151268	-9.654242	-27.192800	-8.827196	 89.782100	 78.203870	 180.000000	-55.819880	 40.164710	 92.996980	-6.986729	-10.585340	 84.926180	-3.581193	 12.933200	 8.565480	 5.716227	 19.173190	-3.685159	 5.027444	 0.246877	-9.377972	-2.350882	 35.473990	 5.254307
-0.472255	-0.038754	 1.260791	-178.142200	-0.402028	 5.168287	 5.857234	-15.458350	 176.629500	-13.469920	-47.479820	-10.436490	-174.336100	 84.480050	 164.224900	-2.385833	 28.452760	 0.000004	 21.976140	-15.025760	-178.291300	 5.192233	-40.787040	 2.399042	 36.765660	 81.706990	-25.355010	 2.384659	 28.388700	-0.000001	-16.111110	 4.379105	-8.154477	-8.444594	 11.364980	-12.700420	 16.049470	-3.834135	 26.805560	-91.776120	 78.527380	 180.000000	 53.028270	 45.774800	-87.517690	-1.580132	-2.887291	-81.991170	-1.514955	-33.409260	-2.494694	-4.130319	 21.525730	 0.991547	-5.167930	 0.731704	 3.519349	-1.378229	 35.397820	-2.634230	-3.349439	 0.444480	 0.836026	-10.244890	-28.362520	-11.107720	 89.782100	 78.203850	 180.000000	-61.689150	 37.038850	 104.294700	-9.153947	-10.086000	 72.806680	-7.870954	 7.350829	 11.478690	 5.716227	 19.173190	-3.685159	 5.027444	 0.246877	-9.377972	-2.350882	 35.473990	 5.254307
